# xmcd CD database file
# Copyright (C) 1993-1998 Ti Kan
#
# Track frame offsets:
#	150
#	13750
#	32092
#	49622
#	61220
#	77367
#	99667
#	118745
#	144530
#	157907
#
# Disc length: 2474 seconds
#
# Revision: 1
# Processed by: cddbd v1.4b41PL1 Copyright (c) Steve Scherf et al.
# Submitted via: CDValet v3.31 - Copyright (c) 1997 Greg Leichner
#
DISCID=7609a80a
DTITLE=Exile - The Best of Exile
DYEAR=1900
DGENRE=
TTITLE0=Stay With Me
TTITLE1=Take This Heart
TTITLE2=You Thrill Me
TTITLE3=Dixie Girl
TTITLE4=One More Night for Love
TTITLE5=Kiss You All Over
TTITLE6=The Closer You Get
TTITLE7=Never Gonna Stop
TTITLE8=Someone Like You
TTITLE9=Heart and Soul
EXTD=
EXTT0=
EXTT1=
EXTT2=
EXTT3=
EXTT4=
EXTT5=
EXTT6=
EXTT7=
EXTT8=
EXTT9=
PLAYORDER=
